<svg width="88" height="53" viewBox="0 0 88 53" fill="none" xmlns="http://www.w3.org/2000/svg">
<g clip-path="url(#clip0_143_18169)">
<path d="M0 25.4539L2.04676 16.3991H2.07891L6.91184 25.661C7.67267 25.977 8.0906 26.0097 8.72284 26.0097C11.1875 26.0097 12.9985 24.3425 12.9985 22.087C12.9985 20.3871 12.0984 18.9379 10.0731 17.8483L6.10813 15.6581C2.88261 13.8602 0.975158 11.4521 0.975158 7.88898C0.975158 3.46505 4.16853 0 9.83731 0C12.5485 0 15.0239 0.39227 17.735 1.55818L15.6883 9.37089H15.6561L11.0589 0.991571C10.3624 0.817229 10.0516 0.78454 9.35509 0.78454C7.58695 0.78454 6.05455 2.09211 6.05455 4.04256C6.05455 5.60074 6.92255 6.97368 9.4944 8.53187L14.0487 11.3213C16.9742 13.0866 18.6352 15.244 18.6352 18.4585C18.6352 23.3401 14.6059 26.8705 8.79786 26.8705C5.84023 26.8705 2.81831 26.4128 0 25.4539Z" fill="#FFFFFF"/>
<path d="M20.7141 17.2163C20.7141 12.1604 24.604 8.12869 30.2728 8.12869C35.9416 8.12869 40.153 11.6591 40.153 17.2163C40.153 22.3812 36.9167 26.5109 30.3157 26.5109C25.3113 26.5109 20.7141 22.9042 20.7141 17.2163ZM35.6308 23.4381C35.6308 20.4634 29.7906 9.40357 26.7258 9.40357C25.8578 9.40357 25.3327 10.0356 25.3327 11.1361C25.3327 14.6011 31.3444 25.2469 34.1949 25.2469C35.1379 25.2469 35.6201 24.6476 35.6201 23.449L35.6308 23.4381Z" fill="#FFFFFF"/>
<path d="M62.9245 25.5956V26.1622H54.2338V23.4381C51.9405 25.138 49.9581 26.5545 48.0078 26.5545C44.8787 26.5545 43.5177 24.713 43.5177 20.507V12.9013L41.5353 11.1688L50.4724 7.98705V19.0905C50.4724 22.0652 50.7189 23.2311 52.4549 23.2311C53.0121 23.2311 53.6337 23.0894 54.2338 22.8824V12.7379L52.2513 11.0054L61.1885 7.82361V25.6065H62.9245V25.5956Z" fill="#FFFFFF"/>
<path d="M64.4141 25.5956L65.4964 19.8314H65.5285L69.8364 25.7046C70.3186 25.8462 70.5651 25.8789 70.983 25.8789C72.5154 25.8789 73.5548 25.0617 73.5548 23.6125C73.5548 22.5555 72.9333 21.9453 71.4652 21.1717L69.172 19.9295C66.2894 18.3713 64.8963 16.715 64.8963 14.0236C64.8963 10.4496 67.7467 8.1178 72.3761 8.1178C74.6371 8.1178 76.4482 8.51007 78.152 9.14206L76.7911 14.7319H76.7589L72.7297 8.90234C72.5582 8.83696 72.3118 8.79337 72.1403 8.79337C70.6079 8.79337 69.8471 9.67598 69.8471 10.6676C69.8471 11.9097 70.4043 12.7923 72.4511 13.882L75.0551 15.2985C77.4555 16.6061 78.7092 18.3713 78.7092 20.5724C78.7092 24.2444 75.0551 26.5109 70.7794 26.5109C69.1398 26.5109 66.8466 26.3365 64.4141 25.5956Z" fill="#FFFFFF"/>
<path d="M31.13 47.737C30.4656 48.053 29.244 48.1947 28.2689 48.1947C20.8641 48.1947 13.6308 40.8069 13.6308 31.7847C13.6308 28.9626 14.8202 27.7531 16.3419 27.7531C18.8173 27.7531 21.5928 30.1285 26.8865 40.6326H26.9186L29.9834 28.287C27.4437 26.9467 24.4539 26.1295 20.8641 26.1295C13.2557 26.1295 8.2406 31.1201 8.2406 38.7148C8.2406 47.0615 13.4915 53 21.4963 53C25.697 53 29.4905 50.8098 31.1622 47.7697L31.13 47.737Z" fill="#FFFFFF"/>
<path d="M47.6756 34.0839C45.3073 34.0839 43.2927 35.4677 41.0316 37.4508V25.7808L32.0945 28.9626L34.0769 30.6951V52.2917H41.0424V37.9412C41.7282 37.6252 42.4247 37.4073 43.1106 37.4073C44.5465 37.4073 45.2002 38.3335 45.2002 41.0902V52.2917H52.1549V39.5647C52.1549 35.958 50.6225 34.0839 47.6756 34.0839Z" fill="#FFFFFF"/>
<path d="M71.3151 49.0773C70.9936 49.1536 70.6507 49.1863 70.2971 49.1863C67.9717 49.1863 65.4642 47.8787 63.4817 45.8956C67.6609 44.3047 69.8899 41.7223 69.8899 38.7911C69.8899 36.2087 67.6288 34.2582 64.3604 34.2582C58.7881 34.2582 55.3804 38.5405 55.3804 43.7054C55.3804 49.1863 59.4203 52.6513 64.3175 52.6513C67.5538 52.6513 69.8899 51.3765 71.3472 49.11L71.3151 49.0773ZM59.6989 37.5925C59.6989 36.2741 60.2133 35.5004 61.1242 35.5004C62.6137 35.5004 64.639 38.1156 64.639 41.1883C64.639 42.9971 64.2532 44.4137 63.2781 45.6885C61.1885 43.4875 59.6989 40.5237 59.6989 37.5925Z" fill="#FFFFFF"/>
<path d="M81.0774 52.2917H74.1227V35.5331H72.0331V34.9665H74.1548C74.5406 28.4286 78.0876 25.7808 82.8563 25.7808C84.5172 25.7808 86.4997 26.1622 88 26.8378L87.0569 33.7352H87.0248L84.2065 29.5619C83.1992 28.0364 82.0847 26.2385 81.6346 26.4128C81.1846 26.5872 81.0774 27.7531 81.0774 30.0195V34.9665H85.5674V35.5331H81.0774V52.2917Z" fill="#FFFFFF"/>
</g>
<defs>
<clipPath id="clip0_143_18169">
<rect width="88" height="53" fill="#000022"/>
</clipPath>
</defs>
</svg>
