<svg width="58" height="35" viewBox="0 0 58 35" fill="none" xmlns="http://www.w3.org/2000/svg">
<g clip-path="url(#clip0_1_1460)">
<path d="M0 16.8092L1.349 10.8296H1.37019L4.55553 16.9459C5.05699 17.1546 5.33244 17.1762 5.74915 17.1762C7.3736 17.1762 8.56722 16.0752 8.56722 14.5857C8.56722 13.4632 7.97394 12.5062 6.63906 11.7866L4.02582 10.3403C1.8999 9.15296 0.642718 7.56271 0.642718 5.2097C0.642718 2.28824 2.74744 0 6.48368 0C8.27058 0 9.90209 0.259046 11.689 1.02899L10.34 6.18832H10.3188L7.28885 0.654811C6.82976 0.539679 6.62494 0.518092 6.16585 0.518092C5.00049 0.518092 3.9905 1.38158 3.9905 2.66961C3.9905 3.6986 4.56259 4.60526 6.25767 5.63425L9.25938 7.47636C11.1875 8.64207 12.2823 10.0668 12.2823 12.1896C12.2823 15.4132 9.62664 17.7447 5.79859 17.7447C3.84925 17.7447 1.85753 17.4424 0 16.8092Z" fill="#000022"/>
<path d="M13.6525 11.3692C13.6525 8.0304 16.2163 5.36798 19.9525 5.36798C23.6888 5.36798 26.4644 7.6994 26.4644 11.3692C26.4644 14.78 24.3315 17.5072 19.9808 17.5072C16.6824 17.5072 13.6525 15.1254 13.6525 11.3692ZM23.4839 15.478C23.4839 13.5135 19.6347 6.20988 17.6147 6.20988C17.0426 6.20988 16.6965 6.62723 16.6965 7.354C16.6965 9.64224 20.6588 16.6725 22.5375 16.6725C23.159 16.6725 23.4769 16.2767 23.4769 15.4852L23.4839 15.478Z" fill="#000022"/>
<path d="M41.4729 16.9027V17.2769H35.7449V15.478C34.2335 16.6005 32.9269 17.536 31.6414 17.536C29.5791 17.536 28.6821 16.3199 28.6821 13.5423V8.51971L27.3755 7.37559L33.2659 5.27444V12.6069C33.2659 14.5713 33.4283 15.3413 34.5725 15.3413C34.9398 15.3413 35.3494 15.2477 35.7449 15.111V8.41178L34.4383 7.26766L40.3287 5.1665V16.9099H41.4729V16.9027Z" fill="#000022"/>
<path d="M42.4547 16.9028L43.1681 13.0962H43.1892L46.0285 16.9747C46.3463 17.0683 46.5088 17.0899 46.7842 17.0899C47.7942 17.0899 48.4793 16.5502 48.4793 15.5932C48.4793 14.8952 48.0697 14.4922 47.1021 13.9813L45.5906 13.161C43.6907 12.132 42.7725 11.0383 42.7725 9.26092C42.7725 6.90072 44.6513 5.36084 47.7024 5.36084C49.1927 5.36084 50.3863 5.61989 51.5093 6.03724L50.6123 9.72864H50.5911L47.9355 5.87893C47.8225 5.83576 47.66 5.80697 47.547 5.80697C46.537 5.80697 46.0356 6.38983 46.0356 7.04464C46.0356 7.86495 46.4028 8.44781 47.7518 9.16738L49.4681 10.1028C51.0502 10.9663 51.8765 12.132 51.8765 13.5856C51.8765 16.0105 49.4681 17.5072 46.65 17.5072C45.5694 17.5072 44.058 17.3921 42.4547 16.9028Z" fill="#000022"/>
<path d="M20.5175 31.5245C20.0796 31.7332 19.2744 31.8267 18.6317 31.8267C13.7513 31.8267 8.98388 26.948 8.98388 20.99C8.98388 19.1263 9.76785 18.3275 10.7708 18.3275C12.4023 18.3275 14.2316 19.8962 17.7206 26.8329H17.7418L19.7618 18.6801C18.0879 17.7951 16.1173 17.2554 13.7513 17.2554C8.73668 17.2554 5.43127 20.551 5.43127 25.5664C5.43127 31.0784 8.89206 35 14.168 35C16.9366 35 19.4369 33.5537 20.5387 31.5461L20.5175 31.5245Z" fill="#000022"/>
<path d="M31.4226 22.5082C29.8617 22.5082 28.5339 23.4221 27.0436 24.7317V17.0251L21.1532 19.1262L22.4598 20.2704V34.5323H27.0507V25.0555C27.5027 24.8468 27.9618 24.7029 28.4138 24.7029C29.3602 24.7029 29.791 25.3146 29.791 27.1351V34.5323H34.3748V26.1277C34.3748 23.7459 33.3648 22.5082 31.4226 22.5082Z" fill="#000022"/>
<path d="M47.0032 32.4095C46.7913 32.4599 46.5653 32.4815 46.3322 32.4815C44.7996 32.4815 43.1469 31.618 41.8402 30.3084C44.5947 29.2578 46.0638 27.5524 46.0638 25.6168C46.0638 23.9114 44.5736 22.6234 42.4194 22.6234C38.7467 22.6234 36.5007 25.4513 36.5007 28.862C36.5007 32.4815 39.1634 34.7697 42.3911 34.7697C44.5241 34.7697 46.0638 33.9278 47.0244 32.4311L47.0032 32.4095ZM39.3471 24.8252C39.3471 23.9546 39.6861 23.4437 40.2864 23.4437C41.2681 23.4437 42.603 25.1706 42.603 27.1998C42.603 28.3943 42.3488 29.3298 41.706 30.1717C40.3288 28.7181 39.3471 26.7609 39.3471 24.8252Z" fill="#000022"/>
<path d="M53.4374 34.5323H48.8536V23.4653H47.4763V23.0911H48.8748C49.129 18.7736 51.4668 17.0251 54.6098 17.0251C55.7045 17.0251 57.0111 17.2769 57.9999 17.7231L57.3784 22.278H57.3572L55.4997 19.522C54.8358 18.5146 54.1013 17.3273 53.8046 17.4424C53.508 17.5576 53.4374 18.3275 53.4374 19.8242V23.0911H56.3967V23.4653H53.4374V34.5323Z" fill="#000022"/>
</g>
<defs>
<clipPath id="clip0_1_1460">
<rect width="58" height="35" fill="white"/>
</clipPath>
</defs>
</svg>
