<svg width="136" height="49" viewBox="0 0 136 49" fill="none" xmlns="http://www.w3.org/2000/svg">
<g clip-path="url(#clip0_144_1663)">
<path d="M56.5668 11.9864H66.863V11.2415H56.5668V11.9864Z" fill="#1D1D1B"/>
<path d="M56.5668 13.2827H66.863V12.5475H56.5668V13.2827Z" fill="#1D1D1B"/>
<path d="M61.71 4.1309C61.806 4.1309 61.8924 4.07285 61.8924 3.99546C61.8924 3.91806 61.8156 3.86002 61.71 3.86002C61.6045 3.86002 61.5277 3.91806 61.5277 3.99546C61.5277 4.07285 61.6045 4.1309 61.71 4.1309ZM61.71 4.58559C61.806 4.58559 61.8924 4.52754 61.8924 4.45015C61.8924 4.37275 61.8156 4.31471 61.71 4.31471C61.6045 4.31471 61.5277 4.37275 61.5277 4.45015C61.5277 4.52754 61.6045 4.58559 61.71 4.58559ZM61.71 6.29793C61.806 6.29793 61.8924 6.23988 61.8924 6.16249C61.8924 6.08509 61.8156 6.02705 61.71 6.02705C61.6045 6.02705 61.5277 6.08509 61.5277 6.16249C61.5277 6.23988 61.6045 6.29793 61.71 6.29793ZM61.71 5.89161C61.806 5.89161 61.8924 5.83356 61.8924 5.75617C61.8924 5.67877 61.8156 5.62073 61.71 5.62073C61.6045 5.62073 61.5277 5.67877 61.5277 5.75617C61.5277 5.83356 61.6045 5.89161 61.71 5.89161ZM61.71 5.47562C61.8252 5.47562 61.9116 5.4079 61.9116 5.32083C61.9116 5.23376 61.8252 5.16604 61.71 5.16604C61.5949 5.16604 61.5085 5.23376 61.5085 5.32083C61.5085 5.4079 61.5949 5.47562 61.71 5.47562ZM61.71 5.02093C61.806 5.02093 61.8924 4.95321 61.8924 4.88549C61.8924 4.81777 61.8156 4.75005 61.71 4.75005C61.6045 4.75005 61.5277 4.80809 61.5277 4.88549C61.5277 4.96288 61.6045 5.02093 61.71 5.02093ZM64.7711 8.79388L64.8958 9.06476L65.1357 8.87127L65.0206 8.61974L64.7711 8.79388ZM61.71 8.95834L62.0171 8.50365L61.71 8.16505L61.403 8.50365L61.71 8.95834ZM61.71 1.6156L61.9307 1.28667L61.71 1.02547L61.4893 1.28667L61.71 1.6156ZM58.3995 8.61974L58.2844 8.87127L58.5243 9.06476L58.649 8.79388L58.3995 8.61974ZM64.0418 4.19862C64.0418 4.0922 63.965 3.99546 63.8787 3.99546C63.7923 3.99546 63.7156 4.08253 63.7156 4.19862C63.7156 4.31471 63.7923 4.40178 63.8787 4.40178C63.965 4.40178 64.0418 4.31471 64.0418 4.19862ZM67.7745 7.99092C67.7361 8.05864 67.7745 8.1457 67.8609 8.1844C67.9377 8.2231 68.0336 8.20375 68.0624 8.1457C68.0912 8.07798 68.0624 7.99092 67.976 7.95222C67.8993 7.91352 67.8033 7.93287 67.7745 7.99092ZM67.9281 7.65232C67.8897 7.72971 67.9377 7.83613 68.0432 7.8845C68.1488 7.93287 68.2543 7.90385 68.2927 7.81678C68.3311 7.72971 68.2831 7.63297 68.1776 7.5846C68.0816 7.53623 67.9665 7.56525 67.9281 7.65232ZM68.0912 7.2847C68.0624 7.37177 68.12 7.46851 68.2255 7.50721C68.3311 7.5459 68.4366 7.5072 68.4654 7.42014C68.4942 7.33307 68.4366 7.23633 68.3311 7.19763C68.2255 7.15893 68.12 7.19763 68.0912 7.2847ZM68.1967 6.89773C68.1776 6.9848 68.2447 7.08154 68.3599 7.10089C68.4654 7.12991 68.571 7.08154 68.5902 6.9848C68.6094 6.89773 68.5422 6.80099 68.4366 6.78164C68.3311 6.75261 68.2255 6.80099 68.2063 6.89773M68.2735 6.50108C68.2639 6.58815 68.3407 6.67522 68.4558 6.68489C68.571 6.69457 68.6669 6.63652 68.6765 6.54946C68.6861 6.46239 68.6094 6.37532 68.4942 6.36564C68.3791 6.35597 68.2831 6.41402 68.2735 6.50108ZM68.3119 6.12379C68.3119 6.21086 68.3983 6.28825 68.5038 6.28825C68.619 6.28825 68.7053 6.22053 68.7053 6.13346C68.7053 6.0464 68.619 5.969 68.5038 5.969C68.3983 5.969 68.3023 6.03672 68.3023 6.12379M68.2447 5.7078C68.2543 5.79487 68.3503 5.86259 68.4654 5.84324C68.5806 5.83356 68.6573 5.74649 68.6477 5.65943C68.6382 5.57236 68.5422 5.50464 68.427 5.52399C68.3215 5.53366 68.2351 5.62073 68.2447 5.7078ZM68.1392 5.31115C68.1584 5.39822 68.2639 5.44659 68.3791 5.41757C68.4846 5.38855 68.5518 5.29181 68.5326 5.20474C68.5038 5.11767 68.3983 5.0693 68.2927 5.09832C68.1871 5.12734 68.12 5.22409 68.1392 5.31115ZM67.9473 4.98223C67.9952 5.05962 68.1104 5.07897 68.2063 5.02093C68.3023 4.96288 68.3407 4.85646 68.3023 4.77907C68.2639 4.70168 68.1392 4.68233 68.0528 4.74037C67.9569 4.79842 67.9089 4.90484 67.9569 4.98223M67.6786 4.72103C67.7457 4.78875 67.8609 4.7694 67.9377 4.692C68.0144 4.61461 68.024 4.49852 67.9569 4.4308C67.8897 4.37275 67.7745 4.38243 67.6978 4.45982C67.621 4.53722 67.6114 4.65331 67.6786 4.72103ZM67.3331 4.49852C67.4099 4.54689 67.5154 4.49852 67.573 4.41145C67.6306 4.31471 67.6114 4.19862 67.5346 4.15025C67.4579 4.10187 67.3523 4.15025 67.2947 4.23731C67.2372 4.33406 67.2564 4.45015 67.3331 4.49852ZM65.9418 4.79842C65.9993 4.75005 65.9993 4.65331 65.9418 4.58559C65.8842 4.51787 65.7978 4.49852 65.7402 4.54689C65.6827 4.59526 65.6827 4.692 65.7402 4.75972C65.7978 4.82744 65.8938 4.84679 65.9418 4.79842ZM66.2296 4.59526C66.3064 4.55656 66.3352 4.44047 66.2968 4.34373C66.2488 4.24699 66.1433 4.18894 66.0665 4.22764C65.9897 4.26634 65.9609 4.38243 65.9993 4.47917C66.0473 4.57591 66.1529 4.63396 66.2296 4.59526ZM66.6231 4.44047C66.7094 4.42112 66.7574 4.31471 66.7382 4.20829C66.7094 4.10187 66.623 4.02448 66.5367 4.04383C66.4503 4.06318 66.4024 4.16959 66.4215 4.27601C66.4503 4.38243 66.5367 4.45982 66.6231 4.44047ZM65.2701 6.99447C65.3564 7.02349 65.4428 6.99447 65.4716 6.92675C65.5004 6.85903 65.4524 6.78164 65.366 6.74294C65.2797 6.70424 65.1933 6.74294 65.1645 6.81066C65.1357 6.87838 65.1837 6.96545 65.2701 6.99447ZM65.3468 6.63652C65.462 6.6462 65.5579 6.58815 65.5675 6.50108C65.5771 6.41402 65.5004 6.32695 65.3852 6.31727C65.2797 6.3076 65.1741 6.36565 65.1645 6.45271C65.1549 6.53978 65.2317 6.62685 65.3468 6.63652ZM65.366 6.18183C65.4812 6.18183 65.5579 6.09477 65.5579 6.0077C65.5579 5.92063 65.462 5.85291 65.3468 5.85291C65.2317 5.85291 65.1453 5.93998 65.1549 6.02705C65.1549 6.11412 65.2509 6.19151 65.366 6.18183ZM65.3468 5.72715C65.4524 5.7078 65.5291 5.62073 65.5195 5.53366C65.5004 5.44659 65.4044 5.38855 65.2892 5.4079C65.1837 5.42724 65.1069 5.51431 65.1165 5.60138C65.1357 5.68845 65.2317 5.74649 65.3468 5.72715ZM65.318 5.31115C65.4236 5.26278 65.4716 5.16604 65.4332 5.07897C65.3948 4.9919 65.2892 4.96288 65.1837 5.01125C65.0781 5.05962 65.0302 5.15637 65.0685 5.24343C65.1069 5.3305 65.2125 5.35952 65.318 5.31115ZM65.1645 4.89516C65.2509 4.82744 65.2701 4.71135 65.2125 4.64363C65.1549 4.57591 65.0398 4.57591 64.9534 4.64363C64.867 4.71135 64.8478 4.82744 64.9054 4.89516C64.963 4.96288 65.0781 4.96288 65.1645 4.89516ZM64.608 4.37275C64.5408 4.45982 64.5504 4.57591 64.6271 4.63396C64.7039 4.68233 64.8095 4.65331 64.8766 4.56624C64.9438 4.47917 64.9342 4.36308 64.8574 4.30503C64.7807 4.25666 64.6751 4.28569 64.608 4.37275ZM64.4928 4.3534C64.5312 4.24699 64.4928 4.14057 64.416 4.10187C64.3297 4.07285 64.2337 4.1309 64.1953 4.23731C64.157 4.34373 64.1953 4.45015 64.2721 4.48884C64.3585 4.51787 64.4544 4.45982 64.4928 4.3534ZM62.8232 4.692C62.7656 4.59526 62.6504 4.55656 62.5833 4.60493C62.5065 4.65331 62.4969 4.7694 62.5545 4.86614C62.612 4.96288 62.7272 5.00158 62.7944 4.95321C62.8711 4.90484 62.8807 4.78874 62.8232 4.692ZM63.207 4.45015C63.159 4.3534 63.0534 4.29536 62.9767 4.33406C62.8903 4.37275 62.8711 4.48884 62.9095 4.58559C62.9575 4.68233 63.063 4.74037 63.1398 4.70168C63.2262 4.66298 63.2454 4.54689 63.1974 4.45015M63.61 4.26634C63.5812 4.15992 63.4853 4.0922 63.3989 4.12122C63.3125 4.15025 63.2646 4.25666 63.3029 4.36308C63.3317 4.4695 63.4277 4.53721 63.514 4.50819C63.6004 4.47917 63.6484 4.37275 63.61 4.26634ZM67.1988 4.22764C67.1988 4.11155 67.122 4.02448 67.0357 4.02448C66.9493 4.02448 66.8725 4.11155 66.8725 4.22764C66.8725 4.34373 66.9493 4.4308 67.0357 4.4308C67.122 4.4308 67.1988 4.34373 67.1988 4.22764ZM59.551 4.41145C59.6374 4.41145 59.7141 4.32438 59.7141 4.20829C59.7141 4.0922 59.6374 4.00513 59.551 4.00513C59.4647 4.00513 59.3879 4.0922 59.3879 4.20829C59.3879 4.32438 59.4647 4.41145 59.551 4.41145ZM55.4536 7.96189C55.3769 8.00059 55.3385 8.08766 55.3673 8.15538C55.4057 8.2231 55.492 8.24245 55.5688 8.19407C55.6456 8.15538 55.6839 8.06831 55.6552 8.00059C55.6168 7.93287 55.5304 7.91352 55.4536 7.96189ZM55.2521 7.59427C55.1562 7.64264 55.0986 7.73939 55.137 7.82645C55.1754 7.91352 55.2905 7.94254 55.3865 7.89417C55.4824 7.8458 55.54 7.73939 55.5016 7.66199C55.4632 7.5846 55.3481 7.55558 55.2521 7.59427ZM55.0986 7.2073C54.993 7.246 54.9355 7.34274 54.9643 7.42981C54.993 7.51688 55.0986 7.55558 55.2042 7.51688C55.3097 7.47818 55.3673 7.38144 55.3385 7.29437C55.3097 7.2073 55.2042 7.16861 55.0986 7.2073ZM55.0026 6.80099C54.8971 6.83001 54.8203 6.91708 54.8491 7.00414C54.8683 7.09121 54.9739 7.13958 55.0794 7.12024C55.185 7.09121 55.2617 7.00414 55.2329 6.91708C55.2138 6.83001 55.1082 6.78164 55.0026 6.80099ZM54.9547 6.38499C54.8491 6.39467 54.7628 6.48174 54.7724 6.5688C54.7819 6.65587 54.8779 6.72359 54.9931 6.70424C55.1082 6.69457 55.185 6.6075 55.1754 6.52043C55.1658 6.43336 55.0698 6.36564 54.9547 6.38499ZM54.9259 5.97868C54.8107 5.97868 54.7244 6.05607 54.7244 6.14314C54.7244 6.23021 54.8203 6.3076 54.9259 6.29793C55.041 6.29793 55.1274 6.22053 55.1274 6.13346C55.1274 6.0464 55.0314 5.969 54.9259 5.97868ZM55.0026 5.53366C54.8971 5.51431 54.7915 5.58203 54.7819 5.6691C54.7723 5.75617 54.8491 5.84324 54.9643 5.85291C55.0698 5.86259 55.1754 5.80454 55.185 5.71747C55.1946 5.6304 55.1178 5.54333 55.0026 5.53366ZM55.137 5.108C55.0314 5.07897 54.9259 5.12734 54.8971 5.21441C54.8779 5.30148 54.9451 5.39822 55.0506 5.42724C55.1562 5.45627 55.2617 5.4079 55.2905 5.32083C55.3097 5.23376 55.2425 5.13702 55.137 5.108ZM55.3865 4.75005C55.2905 4.692 55.1754 4.71135 55.1274 4.78874C55.0794 4.86614 55.1274 4.97256 55.2233 5.0306C55.3193 5.08865 55.4345 5.0693 55.4824 4.9919C55.5304 4.91451 55.4824 4.80809 55.3865 4.75005ZM55.7319 4.4695C55.6552 4.3921 55.54 4.37275 55.4728 4.44047C55.4057 4.49852 55.4153 4.62428 55.492 4.70168C55.5688 4.77907 55.6839 4.79842 55.7511 4.7307C55.8183 4.66298 55.8087 4.55656 55.7319 4.4695ZM56.1349 4.24699C56.0774 4.15025 55.9718 4.11155 55.895 4.15992C55.8183 4.20829 55.7991 4.32438 55.8567 4.42112C55.9142 4.51787 56.0198 4.55656 56.0966 4.50819C56.1733 4.45982 56.1925 4.34373 56.1349 4.24699ZM57.6894 4.75972C57.747 4.692 57.747 4.59526 57.6894 4.54689C57.6319 4.49852 57.5455 4.51787 57.4879 4.58559C57.4304 4.65331 57.4304 4.75005 57.4879 4.79842C57.5455 4.84679 57.6319 4.82744 57.6894 4.75972ZM57.4304 4.48884C57.4783 4.3921 57.4496 4.27601 57.3728 4.23731C57.296 4.19862 57.1905 4.24699 57.1425 4.3534C57.0945 4.45015 57.1233 4.56624 57.2097 4.60493C57.2864 4.64363 57.392 4.59526 57.44 4.48884M57.0177 4.28569C57.0465 4.17927 56.989 4.07285 56.9026 4.0535C56.8162 4.03415 56.7203 4.10187 56.7011 4.21797C56.6723 4.32438 56.7299 4.4308 56.8162 4.45015C56.9026 4.4695 56.9986 4.40178 57.0177 4.28569ZM58.2748 6.82033C58.246 6.75261 58.1596 6.72359 58.0733 6.75261C57.9869 6.78164 57.9389 6.86871 57.9677 6.93643C57.9965 7.00414 58.0829 7.03317 58.1692 7.00414C58.2556 6.97512 58.3036 6.88805 58.2748 6.82033ZM58.2748 6.46239C58.2652 6.37532 58.1692 6.3076 58.0541 6.32695C57.9485 6.33662 57.8622 6.42369 57.8718 6.51076C57.8814 6.59783 57.9773 6.66555 58.0925 6.6462C58.2076 6.63652 58.2844 6.54946 58.2748 6.46239ZM58.2748 6.03672C58.2748 5.94965 58.1884 5.87226 58.0829 5.86259C57.9677 5.86259 57.8814 5.9303 57.8718 6.01737C57.8718 6.10444 57.9581 6.18183 58.0637 6.19151C58.1788 6.19151 58.2652 6.12379 58.2748 6.03672ZM58.3132 5.61106C58.3324 5.52399 58.2556 5.43692 58.1404 5.41757C58.0349 5.39822 57.9293 5.45627 57.9101 5.54334C57.891 5.6304 57.9677 5.71747 58.0829 5.73682C58.1884 5.75617 58.294 5.69812 58.3132 5.61106ZM58.3707 5.24343C58.4091 5.15637 58.3515 5.05962 58.2556 5.01125C58.15 4.96288 58.0445 5.00158 58.0061 5.07897C57.9677 5.16604 58.0253 5.26278 58.1213 5.31115C58.2268 5.35952 58.3324 5.32083 58.3707 5.24343ZM58.5339 4.90484C58.5914 4.83712 58.5723 4.72103 58.4859 4.65331C58.3995 4.58559 58.2844 4.57591 58.2268 4.65331C58.1692 4.72103 58.1884 4.83712 58.2748 4.90484C58.3611 4.97256 58.4763 4.98223 58.5339 4.90484ZM58.5914 4.31471C58.5147 4.36308 58.5147 4.47917 58.5723 4.57591C58.6394 4.66298 58.745 4.70168 58.8217 4.64363C58.8985 4.58559 58.8985 4.4695 58.8409 4.38243C58.7738 4.29536 58.6682 4.25666 58.5914 4.31471ZM59.1768 4.49852C59.2631 4.4695 59.3015 4.3534 59.2535 4.24699C59.2152 4.14057 59.1096 4.08253 59.0328 4.11155C58.9465 4.14057 58.9081 4.25666 58.9561 4.36308C58.9945 4.4695 59.1 4.52754 59.1768 4.49852ZM60.6449 4.96288C60.7217 5.01125 60.8272 4.97256 60.8848 4.87581C60.9424 4.77907 60.9328 4.66298 60.856 4.61461C60.7793 4.56624 60.6737 4.60493 60.6065 4.70168C60.549 4.79842 60.5586 4.91451 60.6353 4.96288M60.2803 4.71135C60.3571 4.75005 60.4626 4.70168 60.5106 4.59526C60.5586 4.49852 60.5298 4.38243 60.453 4.34373C60.3666 4.30503 60.2707 4.3534 60.2227 4.45982C60.1747 4.55656 60.2035 4.67265 60.2803 4.71135ZM59.9061 4.50819C59.9924 4.53721 60.0884 4.4695 60.1172 4.36308C60.1459 4.25666 60.1076 4.15025 60.0212 4.12122C59.9348 4.0922 59.8389 4.15992 59.8101 4.26634C59.7813 4.37275 59.8197 4.47917 59.9061 4.50819ZM56.3748 4.4308C56.4612 4.4308 56.538 4.34373 56.538 4.22764C56.538 4.11155 56.4612 4.02448 56.3748 4.02448C56.2885 4.02448 56.2117 4.11155 56.2117 4.22764C56.2117 4.34373 56.2885 4.4308 56.3748 4.4308ZM62.0459 4.23731C62.2378 4.4695 62.0555 4.71135 62.0555 4.71135C62.2378 4.89516 62.0651 5.12734 62.0651 5.12734C62.257 5.3305 62.0651 5.54334 62.0651 5.54334C62.2666 5.76584 62.0651 5.99802 62.0651 5.99802C62.1419 6.05607 62.1227 6.24955 62.1227 6.24955C62.161 6.18183 62.2954 6.17216 62.2954 6.17216C62.3338 6.02705 62.2186 5.95933 62.2186 5.95933C62.4873 5.6304 62.2282 5.50464 62.2282 5.50464C62.2858 5.34985 62.2666 5.19506 62.2666 5.19506C62.2666 4.88549 62.3722 4.81777 62.3722 4.81777C62.1514 4.52754 62.3242 4.53722 62.3242 4.53722C62.4105 4.51787 62.4009 4.4308 62.4009 4.4308C62.3626 4.04383 62.1035 4.06318 62.1035 4.06318C62.1035 4.15025 62.0459 4.24699 62.0459 4.24699M61.2782 4.06318C61.2782 4.06318 61.0096 4.04383 60.9808 4.4308C60.9808 4.4308 60.9712 4.50819 61.0575 4.53722C61.0575 4.53722 61.2303 4.53722 61.0096 4.81777C61.0096 4.81777 61.1151 4.87581 61.1151 5.19506C61.1151 5.19506 61.0959 5.34985 61.1535 5.50464C61.1535 5.50464 60.8944 5.6304 61.1631 5.95933C61.1631 5.95933 61.0383 6.03672 61.0767 6.17216C61.0767 6.17216 61.2207 6.17216 61.2495 6.24955C61.2495 6.24955 61.2207 6.05607 61.307 5.99802C61.307 5.99802 61.1055 5.76584 61.307 5.54334C61.307 5.54334 61.1151 5.3305 61.307 5.12734C61.307 5.12734 61.1343 4.89516 61.3166 4.71135C61.3166 4.71135 61.1343 4.4695 61.3262 4.23731C61.3262 4.23731 61.2686 4.14057 61.2686 4.0535M64.2049 6.40434C64.0706 6.14314 64.2913 6.01737 64.2913 6.01737C64.2529 5.97868 64.2625 5.77552 64.2625 5.77552C64.2625 5.46594 64.1666 5.44659 64.1666 5.44659C63.9075 5.90128 63.514 5.56268 63.514 5.56268C63.0726 5.20474 62.8136 5.59171 62.8136 5.59171C62.5449 5.51431 62.4489 5.69812 62.4489 5.69812C62.4489 5.82389 62.3626 5.93998 62.3626 5.93998C62.4393 6.0464 62.4201 6.15281 62.4201 6.15281C62.4009 6.28825 62.2474 6.27858 62.2474 6.27858C62.1802 6.27858 62.1419 6.39467 62.1419 6.39467C63.2646 6.43336 64.3681 6.75261 64.3681 6.75261C64.3681 6.62685 64.1953 6.39467 64.1953 6.39467M64.9342 6.24955C64.963 4.61461 63.8787 4.67265 63.8787 4.67265C62.9767 4.67265 62.4873 5.4079 62.4873 5.4079C62.612 5.3692 62.7272 5.38855 62.7272 5.38855C62.8903 5.15637 63.1974 5.16604 63.1974 5.16604C63.4277 5.16604 63.6292 5.35952 63.6292 5.35952C63.8211 5.46594 63.9362 5.38855 63.9362 5.38855C64.0226 5.30148 63.9171 5.25311 63.9171 5.25311C63.8787 5.25311 63.8787 5.21441 63.8787 5.21441C63.8787 5.16604 63.9554 5.15637 63.9554 5.15637C64.5888 5.15637 64.5216 5.80454 64.5216 5.80454C64.5216 5.99802 64.6175 6.07542 64.6175 6.07542C64.7039 6.18183 64.5024 6.14314 64.5024 6.14314C64.2337 6.14314 64.4544 6.37532 64.4544 6.37532C64.6463 6.57848 64.6751 6.81066 64.6751 6.81066C64.7039 6.99447 64.4832 6.88805 64.4832 6.88805C64.6175 7.19763 64.6559 7.71036 64.6559 7.71036C64.9438 6.97512 64.9342 6.25923 64.9342 6.25923M65.7306 5.76584C66.0281 5.98835 65.7498 6.28825 65.7498 6.28825C66.0089 6.59783 65.6731 6.79131 65.6731 6.79131C65.7786 6.9461 65.6635 7.16861 65.6635 7.16861C66.5655 7.46851 67.1892 7.82645 67.1892 7.82645C67.3043 6.83968 67.1604 6.48174 67.1604 6.48174C67.2852 6.48174 67.4003 6.52043 67.4003 6.52043C67.1508 6.03672 67.4003 5.71747 67.4003 5.71747C67.2947 5.60138 67.2947 5.35952 67.2947 5.35952C67.2947 5.09832 67.122 5.108 67.122 5.108C67.0261 5.108 66.9973 5.27246 66.9973 5.27246C66.9973 5.51431 67.17 5.4079 67.17 5.4079C67.17 5.64008 66.7574 5.64975 66.7574 5.64975C66.3832 5.64975 66.316 5.38855 66.316 5.38855C66.1529 5.48529 66.0761 5.64975 66.0761 5.64975C65.9897 5.52399 65.8458 5.57236 65.8458 5.57236C65.8266 5.7078 65.7306 5.75617 65.7306 5.75617M66.5175 5.04028C66.4887 5.43692 66.7862 5.37887 66.7862 5.37887C66.6135 4.92418 67.0932 4.88549 67.0932 4.88549C67.5154 4.88549 67.5538 5.42724 67.5538 5.42724C67.573 5.64008 67.717 5.73682 67.717 5.73682C67.3715 5.95933 67.621 6.39467 67.621 6.39467C67.6786 6.54946 67.6786 6.71392 67.6786 6.71392C67.6786 6.9074 67.5922 6.97512 67.5922 6.97512C67.5538 7.03317 67.4675 6.89773 67.4675 6.89773C67.5059 7.30405 67.4291 8.16505 67.4291 8.16505C68.0432 7.19763 68.0144 6.27858 68.0144 6.27858C67.9473 4.60493 66.9109 4.68233 66.9109 4.68233C66.2296 4.68233 65.7882 5.22409 65.7882 5.22409C65.8362 5.28213 65.8362 5.3692 65.8362 5.3692C65.9034 5.34018 65.9993 5.3692 65.9993 5.3692C66.2392 5.05962 66.4983 5.05962 66.4983 5.05962M61.6429 9.99348C61.6429 9.99348 62.0267 10.5836 63.1686 10.5836C63.1686 10.5836 64.013 10.6223 64.5216 10.1096C64.5216 10.1096 64.8862 10.5836 65.7978 10.5836C65.7978 10.5836 66.5079 10.5836 66.8629 10.3224L67.2564 9.7226V9.4614L67.4387 9.40335L68.0816 8.34886L67.4291 8.50365V9.26791L67.1124 9.35498L66.8725 9.15182L66.364 9.40335L66.6231 9.85804L67.0836 9.73228L66.8821 10.0225C66.8821 10.0225 65.6443 10.4675 64.7807 9.71293L64.8958 9.21954L65.0973 9.04541L65.4812 9.44205L66.0377 9.25824L65.8842 8.66811L65.1741 8.68746L65.1357 8.59072L65.7211 8.12636L65.318 7.39111L64.6367 7.77808L64.8382 8.51332L64.7135 8.60039L64.1666 8.2231L63.562 8.58104L64.0322 9.13247L64.6175 8.90997L64.7135 9.15182L64.5696 9.69358C64.5696 9.69358 64.157 10.1192 63.207 10.1192C63.207 10.1192 62.2186 10.1483 61.7676 9.58716V9.10345L62.0459 8.69713L62.5545 8.98736L63.111 8.523L62.6024 7.98124L61.902 8.17473L61.7772 8.04896L62.305 7.35242L61.6525 6.69457L61 7.35242L61.5277 8.04896L61.403 8.17473L60.7025 7.98124L60.1939 8.523L60.7505 8.98736L61.259 8.69713L61.5373 9.10345V9.58716C61.0863 10.1483 60.1076 10.1192 60.1076 10.1192C59.1576 10.1192 58.745 9.69358 58.745 9.69358L58.601 9.15182L58.7066 8.90997L59.2919 9.13247L59.7621 8.58104L59.1576 8.2231L58.6106 8.60039L58.4859 8.51332L58.6874 7.77808L58.0061 7.39111L57.6031 8.12636L58.1884 8.59072L58.15 8.68746L57.44 8.66811L57.2864 9.25824L57.843 9.44205L58.2268 9.04541L58.4187 9.21954L58.5339 9.71293C57.6703 10.4675 56.4324 10.0225 56.4324 10.0225L56.2309 9.73228L56.6915 9.85804L56.9506 9.40335L56.442 9.15182L56.2021 9.35498L55.8855 9.26791V8.50365L55.2329 8.34886L55.8759 9.40335L56.0582 9.4614V9.7226L56.4612 10.3224C56.8162 10.5836 57.5263 10.5836 57.5263 10.5836C58.4379 10.5836 58.8025 10.1096 58.8025 10.1096C59.3207 10.6126 60.1555 10.5836 60.1555 10.5836C61.2974 10.5836 61.6813 9.99348 61.6813 9.99348M61.6813 3.46338C62.0459 3.46338 62.612 3.57947 62.612 3.57947C62.66 3.39566 62.6504 3.23119 62.6504 3.23119C62.353 3.17315 61.8924 3.13445 61.8924 3.13445V2.23475C61.8924 2.23475 61.8252 2.18638 61.6717 2.18638C61.5181 2.18638 61.451 2.23475 61.451 2.23475V3.13445C61.451 3.13445 60.9904 3.17315 60.6929 3.23119C60.6929 3.23119 60.6833 3.39566 60.7313 3.57947C60.7313 3.57947 61.2974 3.46338 61.6621 3.46338M61.6621 2.02191H61.7676L61.854 1.49951L62.2858 1.70266L62.66 1.38341L62.3242 1.04482L61.9595 1.20928L61.7388 0.957749L61.9883 0.657848L61.6525 0.328924L61.3262 0.657848L61.5757 0.957749L61.355 1.20928L60.9904 1.04482L60.6545 1.38341L61.0287 1.70266L61.4606 1.49951L61.5469 2.02191C61.5469 2.02191 61.6045 2.02191 61.6525 2.02191M58.9561 6.78164C58.9561 6.78164 60.0596 6.45271 61.1823 6.42369C61.1823 6.42369 61.1439 6.3076 61.0767 6.3076C61.0767 6.3076 60.9328 6.31727 60.904 6.18183C60.904 6.18183 60.8944 6.07542 60.9616 5.969C60.9616 5.969 60.8848 5.86259 60.8752 5.72715C60.8752 5.72715 60.7793 5.54334 60.5106 5.62073C60.5106 5.62073 60.2515 5.23376 59.8101 5.59171C59.8101 5.59171 59.4167 5.9303 59.1576 5.47562C59.1576 5.47562 59.0616 5.49496 59.0616 5.80454C59.0616 5.80454 59.0616 5.99802 59.0232 6.0464C59.0232 6.0464 59.2439 6.17216 59.1096 6.43336C59.1096 6.43336 58.9369 6.66555 58.9369 6.79131M58.649 7.73939C58.649 7.73939 58.6778 7.23633 58.8217 6.91708C58.8217 6.91708 58.601 7.02349 58.6298 6.83968C58.6298 6.83968 58.6586 6.6075 58.8505 6.40434C58.8505 6.40434 59.0712 6.18183 58.8025 6.17216C58.8025 6.17216 58.6106 6.21086 58.6874 6.10444C58.6874 6.10444 58.7834 6.02705 58.7834 5.83356C58.7834 5.83356 58.7258 5.18539 59.3591 5.18539C59.3591 5.18539 59.4359 5.18539 59.4359 5.24343C59.4359 5.24343 59.4359 5.28213 59.3975 5.28213C59.3975 5.28213 59.2919 5.3305 59.3783 5.41757C59.3783 5.41757 59.4838 5.49496 59.6854 5.38855C59.6854 5.38855 59.8869 5.19506 60.1172 5.19506C60.1172 5.19506 60.4242 5.19506 60.5873 5.41757C60.5873 5.41757 60.7025 5.4079 60.8272 5.43692C60.8272 5.43692 60.3379 4.70168 59.4359 4.70168C59.4359 4.70168 58.3515 4.65331 58.3803 6.27858C58.3803 6.27858 58.3707 6.99447 58.6586 7.72971M57.4687 5.59171C57.4687 5.59171 57.3248 5.54334 57.2384 5.6691C57.2384 5.6691 57.1617 5.50464 56.9986 5.4079C56.9986 5.4079 56.9218 5.6691 56.5476 5.6691C56.5476 5.6691 56.1349 5.65943 56.1349 5.42724C56.1349 5.42724 56.3077 5.53366 56.3077 5.29181C56.3077 5.29181 56.2885 5.12734 56.1829 5.12734C56.1829 5.12734 56.0102 5.12734 56.0102 5.37887C56.0102 5.37887 56.0102 5.62073 55.9046 5.73682C55.9046 5.73682 56.1541 6.05607 55.9046 6.53978C55.9046 6.53978 56.0198 6.50108 56.1445 6.50108C56.1445 6.50108 56.0006 6.85903 56.1157 7.8458C56.1157 7.8458 56.7395 7.48786 57.6415 7.18795C57.6415 7.18795 57.5167 6.96545 57.6319 6.81066C57.6319 6.81066 57.3056 6.61718 57.5551 6.3076C57.5551 6.3076 57.2768 6.0077 57.5743 5.78519C57.5743 5.78519 57.4783 5.73682 57.4591 5.60138M57.2864 5.37887C57.2864 5.37887 57.3824 5.34985 57.4496 5.37887C57.4496 5.37887 57.4495 5.30148 57.4975 5.23376C57.4975 5.23376 57.0465 4.692 56.3748 4.692C56.3748 4.692 55.3385 4.61461 55.2713 6.28825C55.2713 6.28825 55.2425 7.2073 55.8567 8.17473C55.8567 8.17473 55.7799 7.31372 55.8183 6.9074C55.8183 6.9074 55.7415 7.04284 55.6935 6.9848C55.6935 6.9848 55.6168 6.92675 55.6168 6.72359C55.6168 6.72359 55.6168 6.55913 55.6743 6.40434C55.6743 6.40434 55.9238 5.95933 55.5784 5.74649C55.5784 5.74649 55.7223 5.64975 55.7415 5.43692C55.7415 5.43692 55.7799 4.89516 56.2021 4.89516C56.2021 4.89516 56.6819 4.94353 56.5092 5.38855C56.5092 5.38855 56.8162 5.44659 56.7778 5.04995C56.7778 5.04995 57.0369 5.04995 57.2768 5.35952M56.4612 10.7094L54.9835 8.30049C54.9163 8.20375 54.9643 8.11668 54.9643 8.11668C54.6188 8.04896 54.7244 7.68134 54.7244 7.68134C54.4653 7.60395 54.5325 7.31372 54.5325 7.31372C54.2638 7.14926 54.4269 6.83968 54.4269 6.83968C54.1582 6.66555 54.3501 6.41402 54.3501 6.41402C54.1006 6.17216 54.3693 5.92063 54.3693 5.92063C54.1294 5.56268 54.4845 5.39822 54.4845 5.39822C54.3309 5.04028 54.6572 4.91451 54.6572 4.91451C54.5708 4.47917 54.9931 4.44047 54.9931 4.44047C55.0026 4.04383 55.4345 4.08253 55.4345 4.08253C55.5208 3.66653 55.9718 3.84067 55.9718 3.84067C56.2309 3.43435 56.6051 3.77295 56.6051 3.77295C56.9986 3.52142 57.1425 3.91806 57.1425 3.91806C57.5551 3.80197 57.5935 4.21797 57.5935 4.21797C57.8142 4.21797 57.9005 4.4308 57.9005 4.4308C57.9293 4.30503 58.1117 4.29536 58.1117 4.29536C58.2076 3.84067 58.649 3.97611 58.649 3.97611C58.8505 3.60849 59.2056 3.82132 59.2056 3.82132C59.4934 3.56012 59.7621 3.87937 59.7621 3.87937C60.1459 3.71491 60.2899 4.0922 60.2899 4.0922C60.6257 4.02448 60.6641 4.36308 60.6641 4.36308C60.7313 4.32438 60.8176 4.36308 60.8176 4.36308C60.8176 4.23731 60.8848 4.15992 60.8848 4.15992C60.7025 3.96644 60.6449 3.59881 60.6449 3.59881L60.5202 3.62784C60.4722 3.47305 60.4722 3.25054 60.4722 3.25054L60.5873 3.23119C60.6257 2.42823 61.3454 2.07996 61.3454 2.07996L61.2878 1.74136L61 1.94452L60.3571 1.37374L60.9232 0.812635L61.307 1.00612L61.3454 0.957749L61.0383 0.638499L61.6525 0.0193481L62.2666 0.638499L61.9595 0.957749L61.9979 1.00612L62.3817 0.812635L62.9479 1.37374L62.305 1.94452L62.0171 1.74136L61.9595 2.07996C61.9595 2.07996 62.6888 2.41856 62.7176 3.23119L62.8327 3.25054C62.8327 3.25054 62.8327 3.48272 62.7848 3.62784L62.66 3.59881C62.66 3.59881 62.6025 3.95676 62.4201 4.15992C62.4201 4.15992 62.4969 4.23731 62.4873 4.36308C62.4873 4.36308 62.5737 4.32438 62.6408 4.36308C62.6408 4.36308 62.6792 4.02448 63.0151 4.0922C63.0151 4.0922 63.159 3.71491 63.5428 3.87937C63.5428 3.87937 63.8019 3.56979 64.0994 3.82132C64.0994 3.82132 64.4544 3.60849 64.6559 3.97611C64.6559 3.97611 65.0973 3.84067 65.1933 4.29536C65.1933 4.29536 65.3756 4.30503 65.4044 4.4308C65.4044 4.4308 65.5004 4.21797 65.7115 4.21797C65.7115 4.21797 65.7498 3.80197 66.1625 3.91806C66.1625 3.91806 66.3064 3.51175 66.6998 3.77295C66.6998 3.77295 67.0645 3.43435 67.3331 3.84067C67.3331 3.84067 67.7841 3.66653 67.8705 4.08253C67.8705 4.08253 68.2927 4.04383 68.3119 4.44047C68.3119 4.44047 68.7245 4.47917 68.6477 4.91451C68.6477 4.91451 68.9644 5.04028 68.8205 5.39822C68.8205 5.39822 69.1755 5.56268 68.9356 5.92063C68.9356 5.92063 69.2043 6.17216 68.9548 6.41402C68.9548 6.41402 69.1467 6.66555 68.878 6.83968C68.878 6.83968 69.0412 7.14926 68.7725 7.31372C68.7725 7.31372 68.8301 7.60395 68.5806 7.68134C68.5806 7.68134 68.6861 8.04896 68.3407 8.11668C68.3407 8.11668 68.3887 8.20375 68.3215 8.30049L66.8438 10.7094H56.5188H56.4612Z" fill="#1D1D1B"/>
<path d="M44.8024 42.644C44.4761 42.4892 43.9867 42.615 43.7756 43.0697C43.2479 44.2887 41.0888 48.2648 35.4561 48.2648C31.6466 48.2648 29.1422 46.5331 28.0195 43.1084C25.1504 34.3532 32.3471 17.4233 37.8455 13.3021C39.8798 11.7832 41.1752 11.5317 42.4706 12.383C42.8448 12.6249 43.2671 12.6152 43.5933 12.3637C43.8908 12.1218 44.0155 11.7349 43.9004 11.3963C43.8044 11.1157 43.4686 10.6417 42.3075 10.6417C40.158 10.6417 32.3184 12.2573 21.907 33.0278C21.6575 33.5212 21.552 33.5889 21.552 33.5986C21.552 33.5986 21.4656 33.5116 21.4656 32.9601C21.4656 27.3684 23.2792 17.5781 25.7837 15.5078C25.9948 15.3433 26.0524 15.0338 25.918 14.8113C25.8029 14.6274 25.5342 14.4727 25.1312 14.6565C23.0105 15.6916 21.3121 15.1692 19.3354 14.5694C17.992 14.1631 16.6006 13.7374 14.9117 13.7374C11.4477 13.7374 9.23107 16.0302 8.57857 18.3037C7.88767 20.6932 8.83765 23.0537 11.0447 24.4565C11.4093 24.6887 12.1098 24.7951 12.628 24.5435C12.8199 24.4468 12.9254 24.292 12.9158 24.1275C12.9158 24.0308 12.8583 23.8663 12.58 23.7793C10.229 23.044 9.46137 20.819 9.73965 18.9325C10.0659 16.7268 11.8027 14.5114 14.9213 14.5114C16.1304 14.5114 17.4738 14.8983 18.8844 15.295C20.554 15.769 22.2812 16.2624 23.7782 16.0883C23.4135 16.572 22.5019 17.7812 21.5999 19.3195C20.8707 20.5481 20.151 22.0186 19.3929 23.5858C16.639 29.2452 13.2229 36.2881 6.65942 36.2881C3.77111 36.2881 1.82318 34.7595 1.43936 32.1862C1.07472 29.7483 2.28378 26.6138 4.88422 25.8012C5.64228 25.569 5.95894 25.6754 6.36196 25.8109C6.50589 25.8592 6.64983 25.9076 6.82255 25.9463C7.09123 26.0043 7.35031 25.9173 7.51344 25.7044C7.67657 25.4916 7.71495 25.2014 7.5998 24.9692C7.48465 24.7177 7.21597 24.5726 6.86093 24.5726C4.84583 24.5726 0 26.5461 0 31.4509C0 34.2565 2.2454 37.1007 6.52508 37.1007C13.789 37.1007 17.2243 30.1256 20.5348 23.3826C20.8611 22.7248 21.1873 22.0476 21.5232 21.3897C20.3333 26.1398 19.4025 31.2478 20.151 35.311C20.2182 35.6979 20.3717 35.9882 20.5924 36.1236C20.7363 36.2203 20.8995 36.2397 21.0626 36.201C21.5999 36.0655 21.7247 35.7173 21.8878 35.311L21.9454 35.1562C22.9529 32.6119 28.1442 22.2507 33.1532 17.1427C27.5013 25.2111 23.8645 37.2845 27.1079 44.1822C28.6144 47.3747 31.4931 49.058 35.437 49.058C40.7626 49.058 44.2074 45.3141 45.0423 43.505C45.2342 43.0697 45.0519 42.7505 44.7832 42.6247L44.8024 42.644Z" fill="#1D1D1B"/>
<path d="M49.5043 24.737C48.1033 24.737 46.971 25.7141 46.1554 26.788C46.2226 26.2559 46.213 25.6464 45.9251 25.2304C45.7716 25.0079 45.4741 24.7467 44.8984 24.7467C43.6509 24.7467 42.3843 26.5655 42.1444 26.9137C42.058 27.0298 42.0389 27.1556 42.0868 27.2717C42.1348 27.3781 42.2404 27.4555 42.3651 27.4652C42.4994 27.4845 42.6338 27.4168 42.7201 27.3007C43.0464 26.7976 43.8716 25.8205 44.2938 25.8205C44.4762 25.8205 44.5529 25.8979 44.5913 25.9463C44.7736 26.1978 44.7161 26.8073 44.4474 27.5909C44.1979 28.3165 43.3823 30.7738 42.7585 32.6699C42.3363 33.9372 42.0005 34.9433 41.9813 35.0207C41.9045 35.2529 42.0101 35.3884 42.0484 35.4367C42.1156 35.5045 42.202 35.5432 42.3075 35.5432C42.3555 35.5432 42.4035 35.5432 42.4515 35.5238C42.509 35.5045 42.8929 35.3593 43.1424 35.2529C43.4782 35.0981 43.603 34.9047 43.6893 34.6531C43.7853 34.4113 44.8216 31.3155 44.8888 31.064C45.8867 27.736 47.9498 25.4916 49.2548 25.4916C49.6195 25.4916 49.8114 25.6948 49.8306 25.8205C49.8498 25.956 49.6674 26.014 49.5907 26.0431C49.2164 26.1398 48.9286 26.401 48.7942 26.7589C48.6695 27.1072 48.7175 27.4942 48.9286 27.7941C49.226 28.2004 49.7154 28.3552 50.1952 28.1907C50.675 28.0263 51.2411 27.4748 51.2411 26.4494C51.2411 25.511 50.4639 24.7564 49.5043 24.7564V24.737Z" fill="#1D1D1B"/>
<path d="M56.3555 21.1963C55.799 21.1963 55.3192 21.6703 55.3192 22.2411C55.3192 22.8119 55.7894 23.3052 56.3555 23.3052C56.9217 23.3052 57.3919 22.8312 57.3919 22.2411C57.3919 21.6509 56.9313 21.1963 56.3555 21.1963Z" fill="#1D1D1B"/>
<path d="M56.1157 32.7473C56.0102 32.6892 55.8374 32.6893 55.6743 32.8827L55.6263 32.9505C55.1753 33.6277 54.7051 34.3242 54.043 34.3242C53.8799 34.3242 53.7648 34.2855 53.688 34.1791C53.5249 33.9759 53.5153 33.5696 53.5824 33.26C53.7264 32.6506 54.3021 31.1897 54.8587 29.7773C55.2617 28.7422 55.6455 27.7747 55.8566 27.1556C56.1157 26.3526 56.0965 25.7141 55.799 25.2981C55.5687 24.9789 55.1945 24.8144 54.6859 24.8144C53.9279 24.8144 52.9107 25.4046 52.4693 25.8302L52.4405 25.8689C52.2774 26.1108 52.4022 26.2752 52.4214 26.2849C52.4789 26.3623 52.5653 26.4203 52.6612 26.43C52.7476 26.4397 52.8724 26.43 53.0163 26.3139C53.6976 25.7238 54.2925 25.5884 54.5228 25.7431C54.7243 25.8786 54.7147 26.2946 54.5228 26.846C54.2541 27.5426 53.7552 28.8196 53.2754 30.0095C52.834 31.1123 52.431 32.1475 52.2486 32.6215C51.8744 33.6567 51.8648 34.4693 52.2198 34.9917C52.3926 35.2432 52.738 35.5431 53.4193 35.5431C54.638 35.5431 55.7894 34.3048 56.2692 33.1343C56.3268 32.9505 56.25 32.815 56.1445 32.757L56.1157 32.7473Z" fill="#1D1D1B"/>
<path d="M59.5414 31.6928C59.3303 31.6928 59.1288 31.6928 58.9369 31.6638C59.3879 28.984 61.9116 25.5497 64.0514 25.5497C64.6943 25.5497 65.0206 25.8399 65.0206 26.4203C65.0206 28.3068 62.257 31.6831 59.5414 31.6831V31.6928ZM66.4983 26.5655C66.4983 25.6561 65.8362 24.7274 64.3489 24.7274C60.6929 24.7274 57.248 29.8354 57.248 32.9118C57.248 33.6954 57.4592 34.3242 57.8718 34.7692C58.3324 35.2626 59.0041 35.5141 59.8965 35.5141C62.7368 35.5141 64.8095 32.2055 64.9438 31.8379C65.0398 31.6154 65.0014 31.4026 64.8383 31.3058C64.7903 31.2768 64.56 31.1704 64.3297 31.509C63.8883 32.2539 62.209 34.3532 60.3667 34.3532C59.9061 34.3532 59.551 34.2178 59.3015 33.9469C58.9945 33.618 58.8505 33.0665 58.8889 32.3797C59.052 32.3894 59.2056 32.3894 59.3495 32.3894C63.159 32.3894 66.4983 28.7615 66.4983 26.5655Z" fill="#1D1D1B"/>
<path d="M76.948 33.1343C77.0344 32.8827 76.9288 32.7376 76.8137 32.6893C76.6506 32.6215 76.449 32.7183 76.3435 32.9311C76.2859 33.0762 75.7294 34.3726 74.7122 34.3726C74.3764 34.3726 74.29 34.2468 74.2612 34.1984C74.0981 33.9566 74.1749 33.4535 74.5011 32.6506C74.5587 32.5054 74.7602 31.9734 75.0289 31.3155C75.4991 30.1256 76.142 28.4906 76.3723 27.8812C76.5066 27.5135 76.8905 26.2462 76.3243 25.4336C76.0172 24.9886 75.4799 24.7564 74.741 24.7564C73.5703 24.7564 72.2461 25.7915 71.3921 26.817C71.4689 26.2752 71.4593 25.6561 71.1618 25.2207C71.0083 24.9982 70.7012 24.7274 70.1351 24.7274C69.3194 24.7274 68.475 25.4336 67.621 26.8363L67.5826 26.8944C67.4962 27.0105 67.4771 27.1362 67.525 27.2523C67.573 27.3587 67.6786 27.4361 67.8033 27.4458C67.9377 27.4555 68.072 27.3974 68.1488 27.2814L68.1967 27.204C68.9452 25.9366 69.377 25.8012 69.5209 25.8012C69.7033 25.8012 69.7704 25.8689 69.8088 25.927C69.9815 26.1688 69.924 26.788 69.6553 27.5716C69.2906 28.5874 67.573 33.0665 67.0165 34.537L66.8341 35.0111C66.7574 35.2432 66.8629 35.3787 66.9109 35.4271C67.0069 35.5238 67.1604 35.5528 67.3043 35.5045C67.3523 35.4851 67.8609 35.3013 68.0912 35.2046C68.4462 35.0498 68.5806 34.8466 68.6669 34.6048C68.7437 34.4113 69.6649 32.0701 70.6532 29.5451C71.1234 28.2971 72.9946 25.8012 74.2037 25.8012C74.5683 25.8012 74.8082 25.8883 74.9233 26.0624C75.2496 26.5364 74.7986 27.707 74.4723 28.568L74.4148 28.7035C74.2324 29.1969 74.0309 29.6806 73.8486 30.1449C73.0138 32.2249 72.2941 34.0146 72.9178 34.9433C73.1961 35.3593 73.6855 35.5528 74.4244 35.5528C76.1516 35.5528 76.9384 33.2213 76.9768 33.1246L76.948 33.1343Z" fill="#1D1D1B"/>
<path d="M79.347 35.5625C80.6328 35.5625 81.6979 34.3629 82.1009 33.1536C82.1489 32.9504 82.053 32.7956 81.9282 32.7473C81.7843 32.6892 81.6116 32.7473 81.5156 32.9021C80.9974 33.8695 80.4793 34.3435 79.9515 34.3435C79.702 34.3435 79.6061 34.2468 79.5581 34.1791C79.203 33.6857 79.6828 32.1862 79.9707 31.2961L80.0187 31.151C81.0358 27.9682 83.5499 20.6255 84.7877 18.2359C88.0311 12.0057 90.6891 12.1508 92.8673 13.0989C93.1456 13.2247 93.4527 13.244 93.6734 13.1376C93.8365 13.0699 93.9612 12.9344 94.0188 12.7603C94.086 12.5765 94.0572 12.3733 93.9325 12.2089C93.6638 11.8219 92.9345 11.5994 91.9557 11.5994C85.0372 11.5994 81.7651 20.3643 78.2051 31.8379L78.1571 32.0024C77.9652 32.6602 77.5046 34.1887 78.1091 35.011C78.3682 35.369 78.7904 35.5431 79.347 35.5431V35.5625Z" fill="#1D1D1B"/>
<path d="M92.3778 30.174C93.1839 27.5716 93.6637 25.9947 94.4601 25.4626C94.4889 25.4336 94.5657 25.3465 94.5657 25.2014C94.5657 24.8725 94.1722 24.8725 94.0187 24.8725C93.0783 24.8725 92.2915 25.7528 91.687 27.4748C91.5334 27.8908 91.3895 28.2971 91.2551 28.6841C91.0057 29.3903 90.7754 30.0482 90.5163 30.706C89.5567 33.0375 88.1461 34.537 86.9275 34.537H86.9083C86.1982 34.537 85.8816 34.2275 85.8816 33.5212C85.8816 32.5248 86.5437 30.9672 87.129 29.6032C87.4073 28.9453 87.6759 28.3165 87.8679 27.7651C88.0886 27.1266 88.1941 26.5848 88.1941 26.1495C88.1941 25.2111 87.6855 24.6693 86.8123 24.6693C85.5553 24.6693 84.3079 26.4881 84.0488 26.8847C84.0296 26.9234 83.9912 26.9815 83.9912 27.0685C83.9912 27.2233 84.1063 27.3781 84.3366 27.3781C84.4038 27.3781 84.5094 27.3587 84.6437 27.2136C84.9891 26.7009 85.7952 25.7335 86.2174 25.7335C86.3325 25.7335 86.63 25.7335 86.63 26.2946C86.63 26.7106 86.3325 27.4458 85.8048 28.7809C85.4593 29.6419 84.9987 30.8221 84.423 32.3603C84.2695 32.7763 84.1927 33.173 84.1927 33.5503C84.1927 34.7886 85.0179 35.5045 86.4573 35.5045C87.8966 35.5045 88.9906 34.508 89.691 33.647C87.9446 39.229 85.277 47.0845 79.0782 47.0845C76.6505 47.0845 75.4222 45.9333 75.4222 43.6598C75.4222 39.8192 79.0878 37.5167 82.6382 37.5167C84.7301 37.5167 84.8836 38.5325 85.0083 39.2677C85.0659 39.645 85.1331 40.061 85.5553 40.061C85.9103 40.061 86.2942 39.7998 86.2942 39.3161C86.2942 39.2097 86.2558 36.7524 82.6382 36.7524C78.6848 36.7524 74.5874 39.3548 74.5874 43.7179C74.5874 46.3686 76.2187 47.8875 79.0494 47.8875C86.6396 47.8875 89.8734 37.9037 91.6006 32.5441C91.8789 31.6735 92.1284 30.8802 92.3491 30.1643L92.3778 30.174Z" fill="#1D1D1B"/>
<path d="M99.5459 24.7564C97.6555 24.9111 95.5924 26.3042 95.5348 29.013C95.5253 29.6902 95.7268 31.0446 95.9858 32.7666C96.4081 35.5818 96.9358 39.0742 96.6959 41.0091C96.4272 43.2535 94.7192 44.1629 93.6061 44.1242C93.0975 44.0951 92.2339 43.9017 92.2339 43.3696C92.2339 43.1567 92.3107 43.0407 92.4162 42.8762C92.541 42.673 92.7041 42.4312 92.7233 42.0055C92.7425 41.5121 92.4066 41.1155 91.8981 41.0284C91.6294 40.9897 91.3607 41.0768 91.1496 41.2606C90.9385 41.4444 90.6986 41.812 90.6986 42.5279C90.7274 44.5885 92.8001 44.8304 93.4334 44.8497C93.491 44.8497 93.5389 44.8497 93.5965 44.8497C96.4081 44.8497 97.9242 42.1603 98.1161 40.6898C98.4423 38.3874 97.8954 35.1852 97.454 32.6118C97.1373 30.7641 96.8591 29.1678 96.9646 28.3358C97.2045 26.4977 98.6822 25.6174 99.5459 25.4916C100.026 25.4239 100.419 25.4916 100.621 25.6657C100.707 25.7431 100.755 25.8495 100.755 25.9656C100.755 26.0237 100.707 26.0914 100.621 26.1978C100.534 26.3042 100.429 26.4397 100.342 26.6235C100.227 26.8847 100.218 27.1749 100.323 27.4168C100.419 27.6489 100.601 27.8231 100.87 27.9198C101.158 28.0359 101.484 27.9875 101.762 27.7941C102.108 27.5619 102.3 27.1362 102.3 26.6332C102.3 26.072 102.118 25.6174 101.753 25.2884C101.072 24.6693 99.9873 24.6983 99.5555 24.737L99.5459 24.7564Z" fill="#1D1D1B"/>
<path d="M135.866 18.7777C135.367 17.1524 133.265 15.2079 126.097 15.2079C120.618 15.2079 114.832 17.017 110.178 18.4681L109.238 18.7584C109.9 16.9009 110.36 15.6046 110.389 15.5272C110.754 14.6081 111.109 14.076 111.55 13.7471C111.665 13.6891 111.723 13.5439 111.694 13.4085C111.665 13.2731 111.531 13.1086 111.109 13.1086C110.111 13.1086 109.41 13.8438 108.767 15.5659C108.719 15.74 108.23 17.1331 107.462 19.3001L106.704 19.5226C104.9 20.0644 103.595 20.461 102.309 20.461C99.6802 20.461 98.1161 19.1743 98.1161 17.0363C98.1161 15.2466 99.3347 13.2344 100.956 13.2344C101.168 13.2344 101.302 13.3214 101.455 13.4278C101.609 13.5343 101.772 13.6504 102.022 13.6504C102.559 13.6504 102.847 13.2344 102.847 12.8474C102.847 12.6442 102.77 12.4508 102.626 12.3153C102.521 12.2089 102.319 12.0831 102.002 12.0831C99.1812 12.0831 97.2812 14.6758 97.2812 17.1041C97.2812 19.1163 98.6055 21.264 102.329 21.264C103.797 21.264 105.121 20.877 106.944 20.3449L107.107 20.2966L104.766 26.9428C103.826 29.6032 103.087 31.7122 103.048 31.8379C102.847 32.399 102.252 34.1017 102.866 34.982C103.115 35.3303 103.509 35.5141 104.037 35.5141C105.418 35.5141 106.436 34.3242 106.819 33.1536C106.896 32.9505 106.819 32.7957 106.695 32.7376C106.56 32.6602 106.378 32.7086 106.263 32.8634C105.917 33.4825 105.38 34.3048 104.641 34.3048C104.449 34.3048 104.372 34.2371 104.334 34.1791C104.017 33.7341 104.497 32.2636 104.776 31.3832L104.871 31.093C105.063 30.5125 107.261 24.263 108.854 19.7645L109.88 19.4452C114.381 18.0521 119.985 16.3204 126.145 16.3204C130.473 16.3301 133.726 17.5104 134.445 19.3195C134.868 20.3836 134.378 21.6316 133.025 22.9279C132.757 23.1795 132.795 23.3536 132.881 23.46C133.131 23.7696 133.927 23.3826 134.177 23.2182C135.021 22.6377 136.413 20.6739 135.827 18.768L135.866 18.7777Z" fill="#1D1D1B"/>
<path d="M33.8345 34.2952C33.3163 34.2952 32.9325 34.1307 32.683 33.8115C32.4431 33.5019 32.328 33.0569 32.328 32.4861C32.328 29.874 34.8132 25.7045 36.8763 25.7045C37.0586 25.7045 37.3945 25.7625 37.6536 26.1301C37.9318 26.5268 38.2773 27.5522 37.4329 29.9418C36.6844 32.0798 35.1395 34.2952 33.8441 34.2952H33.8345ZM38.9586 30.3287C39.8894 27.3684 40.2732 26.1495 41.0025 25.6754C41.1272 25.5787 41.1848 25.4336 41.1368 25.3078C41.06 25.066 40.7242 25.066 40.5899 25.066C39.8318 25.066 39.1889 25.598 38.6803 26.6622C38.5748 26.1398 38.3733 25.7141 38.0758 25.4142C37.596 24.9305 37.0107 24.8531 36.7036 24.8531C34.1703 24.8531 30.6775 29.3613 30.6775 32.6312C30.6775 33.9372 31.3492 35.4658 33.2395 35.4658C34.5925 35.4658 35.792 34.3435 36.5501 33.2794C36.4733 33.8598 36.5021 34.4693 36.79 34.9046C37.049 35.2916 37.4713 35.4851 38.047 35.4851C39.3808 35.4851 40.3788 34.2565 40.7338 33.1246C40.8106 32.9214 40.7242 32.7666 40.5995 32.6989C40.4555 32.6312 40.2732 32.6892 40.1772 32.8537C39.8318 33.5019 39.2752 34.2758 38.6323 34.2758C38.3924 34.2758 38.2965 34.1888 38.2485 34.121C37.9127 33.6567 38.3541 32.2346 38.6131 31.3832L38.9394 30.3384L38.9586 30.3287Z" fill="#1D1D1B"/>
</g>
<defs>
<clipPath id="clip0_144_1663">
<rect width="136" height="49" fill="white"/>
</clipPath>
</defs>
</svg>
